<?xml version="1.0" encoding="UTF-8"?>
<svg id="Livello_1" data-name="Livello 1" xmlns="http://www.w3.org/2000/svg" viewBox="0 0 625.52 930.14">
  <defs>
    <style>
      .cls-1 {
        fill: #181223;
      }

      .cls-2 {
        fill: #2f2025;
      }

      .cls-3 {
        fill: #131021;
      }

      .cls-4 {
        fill: #0d0c1a;
      }

      .cls-5 {
        fill: #424680;
      }

      .cls-6 {
        fill: #2a1d28;
      }

      .cls-7 {
        fill: #1b1327;
      }

      .cls-8 {
        fill: #b3bee2;
      }

      .cls-9 {
        fill: #32204c;
      }

      .cls-10 {
        fill: #1b1532;
      }

      .cls-11 {
        fill: #4f518d;
      }

      .cls-12 {
        fill: #3d2257;
      }

      .cls-13 {
        fill: #accae2;
      }

      .cls-14 {
        fill: #1f1838;
      }

      .cls-15 {
        fill: #261b41;
      }

      .cls-16 {
        fill: #321f4a;
      }

      .cls-17 {
        fill: #1b1330;
      }

      .cls-18 {
        fill: #1b111b;
      }

      .cls-19 {
        fill: #29192d;
      }

      .cls-20 {
        fill: #e3f1fb;
      }

      .cls-21 {
        fill: #241c39;
      }

      .cls-22 {
        fill: #0c0814;
      }

      .cls-23 {
        fill: #24162a;
      }

      .cls-24 {
        fill: #31252b;
      }

      .cls-25 {
        fill: #28182e;
      }

      .cls-26 {
        fill: #231a31;
      }

      .cls-27 {
        fill: #18122c;
      }

      .cls-28 {
        fill: #0c0816;
      }

      .cls-29 {
        fill: #1a122e;
      }

      .cls-30 {
        fill: #1f1b32;
      }

      .cls-31 {
        fill: #20182c;
      }

      .cls-32 {
        fill: #070710;
      }

      .cls-33 {
        fill: #4c3d78;
      }

      .cls-34 {
        fill: #0a0812;
      }

      .cls-35 {
        fill: #4c3e79;
      }

      .cls-36 {
        fill: #18101f;
      }

      .cls-37 {
        fill: #201323;
      }

      .cls-38 {
        fill: #afcbe3;
      }

      .cls-39 {
        fill: #fed66d;
      }

      .cls-40 {
        fill: #475f92;
      }

      .cls-41 {
        fill: #525692;
      }

      .cls-42 {
        fill: #d3dde9;
      }

      .cls-43 {
        fill: #ecf6fb;
      }

      .cls-44 {
        fill: #2b1b31;
      }

      .cls-45 {
        fill: #251927;
      }

      .cls-46 {
        fill: #0d0b19;
      }

      .cls-47 {
        fill: #291c29;
      }

      .cls-48 {
        fill: #281b27;
      }

      .cls-49 {
        fill: #241621;
      }

      .cls-50 {
        fill: #28182f;
      }

      .cls-51 {
        fill: #151127;
      }

      .cls-52 {
        fill: #151124;
      }

      .cls-53 {
        fill: #120e20;
      }

      .cls-54 {
        fill: #090811;
      }

      .cls-55 {
        fill: #26182f;
      }

      .cls-56 {
        fill: #0d0c1b;
      }

      .cls-57 {
        fill: #2c1b2f;
      }

      .cls-58 {
        fill: #19152a;
      }

      .cls-59 {
        fill: #08070f;
      }

      .cls-60 {
        fill: #191224;
      }

      .cls-61 {
        fill: #21192d;
      }

      .cls-62 {
        fill: #251831;
      }

      .cls-63 {
        fill: #2a1933;
      }

      .cls-64 {
        fill: #141024;
      }

      .cls-65 {
        fill: #161127;
      }

      .cls-66 {
        fill: #8a97cb;
      }

      .cls-67 {
        fill: #160e21;
      }

      .cls-68 {
        fill: #080812;
      }

      .cls-69 {
        fill: #546fa2;
      }

      .cls-70 {
        fill: #b9c3e5;
      }

      .cls-71 {
        fill: #475f91;
      }

      .cls-72 {
        fill: #6f6e98;
      }

      .cls-73 {
        fill: #7c7ca5;
      }

      .cls-74 {
        fill: #e8f3fb;
      }

      .cls-75 {
        fill: #bfdef2;
      }

      .cls-76 {
        fill: #1c1431;
      }

      .cls-77 {
        fill: #1e1432;
      }

      .cls-78 {
        fill: #31242a;
      }

      .cls-79 {
        fill: #b2bee2;
      }

      .cls-80 {
        fill: #adcae2;
      }

      .cls-81 {
        fill: #43436a;
      }

      .cls-82 {
        fill: #382151;
      }

      .cls-83 {
        fill: #edf5fa;
      }

      .cls-84 {
        fill: #35214f;
      }

      .cls-85 {
        fill: #1d1728;
      }

      .cls-86 {
        fill: #2d1b42;
      }

      .cls-87 {
        fill: #1f1832;
      }

      .cls-88 {
        fill: #d6eaf8;
      }

      .cls-89 {
        fill: #8794ca;
      }

      .cls-90 {
        fill: #d9ecf9;
      }

      .cls-91 {
        fill: #140e1e;
      }

      .cls-92 {
        fill: #1c1427;
      }

      .cls-93 {
        fill: #aecce4;
      }

      .cls-94 {
        fill: #afbae0;
      }

      .cls-95 {
        fill: #0a0915;
      }

      .cls-96 {
        fill: #f7bfad;
      }

      .cls-97 {
        fill: #1f1322;
      }

      .cls-98 {
        fill: #8a97cc;
      }

      .cls-99 {
        fill: #1d1626;
      }

      .cls-100 {
        fill: #e6f0f7;
      }

      .cls-101 {
        fill: #161229;
      }

      .cls-102 {
        fill: #4b3b76;
      }

      .cls-103 {
        fill: #c0def2;
      }

      .cls-104 {
        fill: #1b152c;
      }

      .cls-105 {
        fill: #20182b;
      }

      .cls-106 {
        fill: #c9e1ee;
      }

      .cls-107 {
        fill: #19132d;
      }

      .cls-108 {
        fill: #c0dff2;
      }

      .cls-109 {
        fill: #a698c3;
      }

      .cls-110 {
        fill: #372050;
      }

      .cls-111 {
        fill: #1a162b;
      }

      .cls-112 {
        fill: #181327;
      }

      .cls-113 {
        fill: #ddeffa;
      }

      .cls-114 {
        fill: #f7bfae;
      }

      .cls-115 {
        fill: #1f1327;
      }

      .cls-116 {
        fill: #171129;
      }

      .cls-117 {
        fill: #160f20;
      }

      .cls-118 {
        fill: #1d152b;
      }

      .cls-119 {
        fill: #181022;
      }

      .cls-120 {
        fill: #9bb3d8;
      }

      .cls-121 {
        fill: #42446e;
      }

      .cls-122 {
        fill: #33204e;
      }

      .cls-123 {
        fill: #131024;
      }

      .cls-124 {
        fill: #3b2357;
      }

      .cls-125 {
        fill: #382152;
      }

      .cls-126 {
        fill: #32232a;
      }

      .cls-127 {
        fill: #211429;
      }

      .cls-128 {
        fill: #959ece;
      }

      .cls-129 {
        fill: #485f91;
      }

      .cls-130 {
        fill: #06060d;
      }

      .cls-131 {
        fill: #27152d;
      }

      .cls-132 {
        fill: #9496c2;
      }

      .cls-133 {
        fill: #abc8e1;
      }

      .cls-134 {
        fill: #28253e;
      }

      .cls-135 {
        fill: #2c1a2f;
      }

      .cls-136 {
        fill: #8796cb;
      }

      .cls-137 {
        fill: #19142b;
      }

      .cls-138 {
        fill: #8a94c8;
      }

      .cls-139 {
        fill: #1e1728;
      }

      .cls-140 {
        fill: #120b1b;
      }

      .cls-141 {
        fill: #919dd0;
      }

      .cls-142 {
        fill: #19132e;
      }

      .cls-143 {
        fill: #8294cb;
      }

      .cls-144 {
        fill: #171023;
      }

      .cls-145 {
        fill: #2f1c31;
      }

      .cls-146 {
        fill: #e0ecf4;
      }

      .cls-147 {
        fill: #545691;
      }
    </style>
  </defs>
  <path class="cls-125" d="M504.47,32.52v175.82c3.07-8.54,11.21-8.44,19.21-7.13l.76,2.13c1.58-2.35,2.69-1.54,3,1,.35-1.48.95-2.38,2-1,.45-6.3,1.45-7.97,3-4.99.43-.31.76.02,1,1,.31-.85.65-.84,1,0,.23-1.99,1.23-1.91,2,0,.56-1.89,1.43-1.89,2,0,.1-.91.45-.86,1,0,.26-.87.59-.85,1,0,.17-.8.5-1.14,1-1,1.45-1.38,2.45-.05,3,4,.25-.86.58-.83,1,0,8.64,3.71,11.71,1.4,18.97,9.99l-.66,1.16c-2.14-.7-4.25-.75-6.33-.16-3.17-.67-3.91,1.49-2.2,6.48l-1.79,1.51v1c-.62,7.32-3.31,3.49-2.81-1.8-1.14-1.58-1.86-2.97-2.18-4.19-.02.83-.09,1.22-1,1l-2.21-.39c-2.42-7.43-4.87-12.43-12.59-8.24,3.7,8.71,4.98,17.25,3.82,25.62-.17,4.68.3,9.32,1.42,13.91,1.12,4.05-1.03,9.08-4.42,5.07-2.71.64-3.13-.15-1-2,.13-13.28-1.79-27.73-6.99-39.96l-2.14.72c-3.8-3.27-9.82-2.43-11.51,2.59l-2.33-.31-.78-.02c1.28,10.77,2.87,20.77,4.77,29.98,2.98-.29,3.44,1.23,1,3-.42,9.34.31,18.71,1.16,28.01l-1.16,2.96c-1.06,6.53-8.08-.29-8.9-4.96l-4.09-12.67c-9.72-14.8-15.44-10.18-12.41,6.07,3.49,18.71,10.23,38.13,26.82,49.04l-.42,2.49c6.77,21.13,12.76,42.44,17.98,63.93,1.72-1.33,2.93-.27,3.64,3.18,12.27,5.53,24.59,10.99,36.96,16.39,7.55,3.39,10.55,19.82,10.2,27.32l-1.87,2.07c-.33,18.19-4.66,34.78-11.98,50.95,2.62,2.38-4.76,11.17-7.99,10.99,3.74,1.88,7.91,2.9,12.53,3.04l.46.95.25,1.3-8.24.7c-2.44-.25-5.1-.58-7.99-1-5.15,1.72-6.67,8.02-13.98,4-1.43,27.03-1.01,54.49,2.35,81.62,0,.05.28-.28.64-.7,1.78,7.88,2.81,15.99,3.99,23.97,1.3,17.33,3.97,34.31,7.99,50.95.29,1.77,1.61,4.64,2,6.99,1.63,13.16,3.3,26.48,4.99,39.96,2.04,13.42,2.37,27.5,1,40.96-3.8,49.38-8.35,101.56-12.98,152.84-1.48,10.1-2.15,20.09-2,29.97l-.56.92c-1.81.28-3.63,0-5.44.08l-1.93-.87,13.54-153.96c-20.13,9.37-51.94,3.41-50.96-23.97-.18-17.95.28-35.87,1.39-53.76l2-1.4,46.61-8.54-4.28-24.79c-64.12,13.52-131.35,23.99-197.02,17.73-.12,26.68-5.25,53.44-10.5,79.6-12.72,54.06-25.32,108.06-37.16,162.31-.6,2.74-1.97,5.23-3.35,7.65-2,0-4,0-5.99,0,.34-13.35,2.35-26.62,6.03-39.82l31.97-136.75c-9.32-15.35-16.86-33.34-21.61-51.35l-49.13,227.14-2.21.78c-1.99-.07-4.01.06-5.99,0-.79-1.72.89-3.27,1-3.99,15.53-69.25,31.51-140.85,47.93-214.78,1.63-7.51,2.63-15.16,3-22.98.84-6.34,2.35-12.51,2-18.98-1.79-21.7-4.78-43.68-8.99-65.93-.94-4.21-1.88-8.69-2.82-13.45-14.49-.4-28.86-.25-43.11.46-4.55,3.23-8.4,7.25-13.98,9.99-15.51,5.66-30.83,8.94-45.94-1-2.6-1.72-5.49-3.31-7.92-5.59-1.26-1.19-1.49-2.79-2.07-3.4-53.61-.52-107.22-1.09-160.82-1.71l.04-.79-.7-.18c-.59-73.81-.77-150.53.7-224.09,0-1.47,2.36-1.22,3,0,.88,71.7.87,147.48,0,219.77.34-73.26.67-146.52,1-219.77.83-.21,1.26.9,1.3,3.34l.2,214.69c2.46.84,1.77,1.84-.5,2.74h148.79c-1.65.02-2.66-1.37-2-3-6.06-5.27-9.73-12.06-10.98-19.98-1.65-.35-2.32-1.01-2-2l-1.39-1H57.31s-1.22-1-1.22-1c-1.2-11.86-1.27-23.93-1.31-35.88,1.45-52.61,1.55-104.92.31-156.92-.19,1.41-4.66.27-5.99-1l-2.04,1.12c-5.38-3.73-9.02-9.1-10.94-16.11-10.19-.82-20.49-2.47-30.88-4.93-10.3-4.7-2.66-13.48,6.4-10.63,8.17,1.38,15.77,4.72,23.25,8.07,5.11,3.07,6.74-2.21,7.22-6.5-1.72-3.55,6.55-10.2,9.99-8.99,1.01-.95,2.99-1.98,3,0,.33-97.17.67-194.4,1-291.7l1.41-.87c10.6.27,21.04.08,31.32-.57,14.96,2.16,30.68,1.73,45.69-.13,5.29,1.08,10.58,1.41,16.04,1.4,25.88-.02,52.11-.16,77.75-1.36,9.17,1.3,18.54,1.37,28.12.2,3.96,1.02,6.46.86,10.37-.67,4.63-1.65,9.35-1.67,13.98,0l2.65,1.03c8.27-.25,16.38-.59,24.31-1.03-.03-1.75,1.66-1.73,2,0,3.02.6,5.51,1.13,2,3-4.31,1.09-8.99,1.43-14.03,1l-.94.99c-.32,2.65-1.24,2.54-2,0-.77,2.2-.77,4.53,0,6.99.76.09,1.09.43,1,1,.5.47.86.54,1,0l4.41-.6c65.77.68,131.2.55,196.31-.4-2.73-.82-2.92-6.25,0-6.99l.18-.83c-1.7.23-4.61.54-5.17-1.17-.88-1.96,1.11-2.96,5.99-3,.98-.72,2.32-1.05,3.99-1,2.4-2.3,4.17-.51,2,2Z"/>
  <path class="cls-129" d="M305.74,929.58c14.01-84.13,44.61-165.16,49.93-250.74,14.1,1.11,28.3,1.33,42.49,1.05,38.22-.77,76.84-4.61,114.51-11.32,14.26-2.54,28.39-6.45,42.72-8.7l5,28.96-49.5,8.93c.57,18.52-2.26,40.23-.42,58.49,2.24,22.24,35.77,25.56,50.91,14.5l-13.97,158.83c-25.88,1.19-53.81.12-79.89,0-.56-1.73-1.07-3.46-1.45-5.22s-.73-3.49-.81-5.23c-1.29-27.93-2.55-55.94-3.31-83.9-.34-12.47-.64-24.91-.16-37.38.13,1.86,41.52-36.59,33.64-33.01-12.35,12.91-25.91,24.64-40.69,35.18l-2.33,3.35c-18.14,39.4-35.6,79.87-52.35,121.4l-3.44,4.81c-30.21.65-60.65.06-90.87,0Z"/>
  <path class="cls-80" d="M32.12,328.21c-.11-107.01.23-213.9,1-320.67,161.74-.88,331.32-.88,493.31,0,.62,63.84.79,128,.53,192.49-.17,2.79-1.02,3.9-2.53,3.3-8-1.19-17.19-2.39-18.98,7.99l-.99-2.99V32.52c-.28-.84-1.1-2.04-2-2-1.79.26-3.58.46-5.38.47-19.72.16-39.46.15-59.18.06-.9,0-2.53-.08-3.27-.41-.16-.08-.15-.54-.08-1.12,2.94-.81,11.93-.56,11.36-.56-128.65-.24-261.07-.19-387.83.56,1.91,1.56-1.97,2.98-3,2-.6,96.57-.75,194.04-.47,292.4-.97.33-1.81.76-2.53,1.29-.07.67-7.68,5.5-9.99,8.99-.03,2.29-1.47,6.84-3.63,7.52-1.13.36-13.25-4.34-13.35-6.52-.83-1.93,1.01-4.9,1-5.99,1.77-.11,3.43-.45,4.99-1,.27-.89.6-.88,1,0Z"/>
  <path class="cls-80" d="M36.12,348.19c4.79,1.05,4.27,7.84,7.98,11.49.73.72,4.29,3.19,5,3.49.87.69,2.71,1.46,5.52,2.31l.47,191.49c.28-.87.62-.86,1,0,2.2.49,2.53,1.15,1,2,36.53.25,73.09.63,109.65,1.14l1.19.85c3.69,6.63,7.3,13.35,10.98,19.98l-.17,1.33c-48.17.43-97.9.68-146.13.47l-.2-215.88c-.15-2.48-.38-4.66-1.3-4.69-1.6.3-3.26.3-4.99,0,.02-1.68-2.24-11.87-1.01-12.99,2.19,1,4.93-.9,6-.99.44-1.34,3.83-.96,4.99,0Z"/>
  <path class="cls-71" d="M299.75,929.58c-11.6-.03-23.37.42-34.95,0l51.43-237.76c3.63,19.02,10.26,36.61,19.28,53.65,1.39,2.62,4.47,4.32,4.22,7.77-13.19,58.82-28.92,117.04-39.97,176.34Z"/>
  <path class="cls-82" d="M396.62,929.58c10.35-24.8,20.05-49.95,30.78-74.6,5.29-12.14,18.69-47.17,25.28-55.63,3.88-4.98,20.54-15.23,26.83-21.11,2.63-2.46,13.86-15.52,15.46-15.54,2.05-.02,2.74,1.78,2.53,3.5-.74,6.34-27.73,27.68-34,32.22-.41,43.81,3.08,87.32,4.01,131.15-2,0-4,.01-5.99,0l-2.03-.6-5.14-111.73c-.38-1.62-13.82,28.6-13.81,30.27.14,21.85.72,43.71,1.37,65.56.08,5.53-.61,11.04-1.38,16.51-1.8-.08-3.63.2-5.43-.09l-.56-.91c.32-18.19.13-36.69-.57-55.51,0-.28.31,4.65-.43,5.56l-2-19.98c-9.4,24.13-19.38,47.77-29.96,70.93-1.53.19-3.38-.03-4.99,0Z"/>
  <path class="cls-71" d="M461.53,929.58c-6.95-.05-14.04.31-20.97,0-1.14-27.38-1.73-54.89-1.94-82.35l17.41-38.53,5.49,120.88Z"/>
  <path class="cls-124" d="M564.38,212.33c3.04,3.6,3.54,4.71,4.99,8.99,3.78,7.79,5.13,16.43,5.99,24.97,1.52,19.35.18,38.56-4.04,57.62.42,3.79,1.41,8.7,4.04,11.31,2.94,7.71,6.86,15.32,9.99,22.98,4.89,15.26,10.88,30.58,17.98,45.95l12.04,28.41c5.21,11.14,8.19,22.65,8.93,34.52.56,5.8.56,11.79,0,17.98-1.38,6.61-4.9,12.72-8.99,17.98-11.17,12.41-29.14,21.34-47.93,15.98l7.99-2c12.65-1.34,25.34-4.18,33.95-14.98.14-5.41,4.29-13.25,8.99-15.98,2.18-5.9,2.51-14.22,1-24.97-4.45-17.07-10.11-34.44-17.98-49.95-.89-.82-1.74-1.67-2.5-2.6s-1.44-1.83-1.9-2.85c-6.89-15.37-13.75-30.89-20.19-46.44-4.78-11.54-9.56-23.08-13.24-35.03-.57-1.86,1.17-7.13,3.87-5.98,4.88-19.05,6.33-43.85,2-60.94l-2.19-.67c-2-7.52-4.92-15.23-10.25-21.04l.45-2.27c.32-2.6,2.63-1.53,1-3.99l5.99,2.99Z"/>
  <path class="cls-68" d="M545.41,202.34c-.3-.13-.8.15-1,0l-1.52-4.2-.76-190.44c-.9-1.2-1.47-2.54-1.71-4.01-170.57-.78-341.26-.82-512.05-.14l-1.25-2c-.58-.3-.56-.63,0-1l515.33-.55,2.46,1.54.49,200.8Z"/>
  <path class="cls-21" d="M27.13,1.55c2.14.41,2.64,2.44,1.5,6.09l1.5-1.1c.31-.47.64-.45,1,0,.88,105.65.88,216.04,0,321.66-.79.36-1.72,3.73-4.99,1,0-.71-1.02-2.57-1.04-4.42-1.3-107.68.65-215.66.53-323.27l1.5-.96v1Z"/>
  <path class="cls-87" d="M31.13,362.17c.87.28.86.62,0,1v216.28s-1,3.49-1,3.49v-219.77h-3v224.27c0,.83,2.42,1.77,3.44,1.55l154.94-.11c1.33-.18,1.63.25,2.39,1.06l-161.87-1.4-.96-4.03c-.31-74.1.17-148.43,1.06-222.33,1.99-1.72,3.28-.4,4.99,0Z"/>
  <path class="cls-92" d="M307.74,710.81c-13.33,72.18-32.02,143.38-46.89,215.34l-1.05-.56c11.15-71.08,34.11-143.2,46.93-214.78.28-.87.62-.86,1,0Z"/>
  <path class="cls-119" d="M569.38,747.77l-1,4.99c-2.86,47.62-6.98,98.82-12.98,145.85,2.35-36.11,5.12-72.29,8-108.38,1.17-14.68,4.28-29.72,4.98-44.46.28-.87.62-.86,1,0-.02.66.03,1.33,0,2Z"/>
  <path class="cls-118" d="M25.13,335.2c2.22.73,11.79,6.32,13.42,5.96,2.03-1.78,2.09-4.74,3.56-6.96,1.63,1.94-1.48,7.89-3.5,8.06-3.33.27-20.31-8.17-27.06-8.94-4.73-.54-13.3-.08-9.91,6.87,2.33,4.79,30.82,6.69,36.98,6.99l-2.49,1c-1.07-.23-3.74-.11-4.99,0-5.43-.38-28.34-2.6-30.46-6.99-1.74-3.59.01-8.9,4.23-9.8,3.35-.72,16.37,2.53,20.24,3.81Z"/>
  <path class="cls-61" d="M431.57,858.65l-28.1,70.82c-.59.37-1.27.03-1.86.11l29.96-70.93Z"/>
  <path class="cls-105" d="M312.73,668.85c-1.04-18.84-6.61-46.7-9.99-65.93.28-.87.62-.86,1,0,3.53,19.86,7.19,40.75,9.7,60.74.2,1.6,1.12,4.17-.72,5.19Z"/>
  <path class="cls-1" d="M575.37,315.22c-.85,2.35-3.09-4.07-3.17-4.32-3.44-10.9,2.43-25.91,3.16-38.14.49-8.15.37-18.28,0-26.46,2.24,13.2,1.52,25.7-.14,39.32-.64,5.24-3.87,14.96-3.72,19.17.06,1.6,2.99,8.18,3.86,10.44Z"/>
  <path class="cls-61" d="M625.3,446.08c-.09.71-.18,1.13-1,1-1.9-20.95-14.26-43.19-20.97-62.93v-1c8.12,19.97,20.15,40.82,21.97,62.93Z"/>
  <path class="cls-22" d="M548.41,582.94c-.04,1.11.68,3.26-.99,2.99-4.16-27.29-2.89-54.84-3.02-82.43l1.02-1.48c.92,18.49-1.22,38.12-.04,56.48.51,8,3.34,16.32,3.04,24.43Z"/>
  <path class="cls-31" d="M615.31,483.05c-14.01,18.03-34.57,21.78-55.92,14.98,4.39-1.47,4.76.69,7.99,1,20.16,1.94,30.52-.06,44.94-14.48.46-.46,2.58-3.49,3-1.5Z"/>
  <path class="cls-91" d="M434.56,928.58c-.34-16.67-1.09-33.26-1-49.95.02-3.81-.16-7.68,0-11.5.05-1.22-.75-3.71.99-3.48-.48,19.92,1.24,39.53,1.03,59.45-.02,1.69.64,4.44-1.02,5.48Z"/>
  <path class="cls-85" d="M560.39,657.86l-.99.5c-2.42-15.42-5.94-30.74-7.71-46.26-.18-1.6-1.15-4.15.71-5.19,2.52,17,5.25,33.99,7.99,50.95Z"/>
  <path class="cls-26" d="M603.33,383.15v1c-6.15-13.38-12.31-26.99-17.74-40.69-.56-1.41-2.18-4.21-.24-5.26,6.09,14.91,11.96,30.16,17.98,44.95Z"/>
  <path class="cls-3" d="M257.81,589.93c.98-.69.77-.88,2.39-1.06,12.75-1.37,27.91,1.19,40.94,0,1.73.47,2.24,11.96,2.61,14.05h-1c-.75-4.28-1.51-8.61-2.05-12.93l-42.89-.05Z"/>
  <path class="cls-60" d="M243.83,599.92c-16.24,7.96-30.81,9.01-45.94-1,12.79,6.62,22.92,7.49,36.73,3.28,2.79-.85,6.8-4.4,9.21-2.28Z"/>
  <path class="cls-144" d="M568.38,704.81c-.28.87-.62.86-1,0-1.07-11.29-4.1-23.3-5.73-34.75-.23-1.6-1.06-4.21.74-5.21,2.15,13.19,4.81,26.65,5.99,39.96Z"/>
  <path class="cls-140" d="M569.38,745.77h-1c.61-12.87.21-28.13-1-40.96h1c1.19,13.43,1.49,27.43,1,40.96Z"/>
  <path class="cls-117" d="M553.4,928.58c-1.7-1.62-1.15-5.33-.98-7.49.59-7.55,2.07-15.32,2.98-22.48-.65,9.96-.66,20.01-2,29.97Z"/>
  <path class="cls-139" d="M307.74,710.81h-1c1.4-7.79,2.94-15.03,3.99-22.98,2.59,6.96-1.76,16.27-3,22.98Z"/>
  <path class="cls-7" d="M575.37,246.29c-1.38-8.13-3.35-17.16-5.99-24.97,4.99,7.58,5.61,16.27,5.99,24.97Z"/>
  <path class="cls-99" d="M624.3,465.06c-1.64-5.54.56-11.82,0-17.98l1-1c.48,5.88.2,13.23-1,18.98Z"/>
  <path class="cls-125" d="M568.38,752.76c.06-1.6-.62-4.14,1-4.99-.1,2.21-.97,4.58-1,4.99Z"/>
  <path class="cls-103" d="M266.8,48.5c.87,37.35.87,76.61,0,113.88l-1.9.15c-11.76-5.09-21.11-4.14-28.06,2.84-2.93,5.67-3.12,8.96,1.01,14.48,3.69,4.93,22.99,17.17,28.95,19.49.65,18.4.65,37.05,0,55.94-15.96.86-29.13,14.04-24.29,30.79,2.32,8.05,12.62,13.02,20.08,14.92,1.44.37,3.39-.03,4.21.24.92,43.91.87,90.02,0,133.86-15.15,20.91-29.68,42.54-43.95,63.93-1.25.86-14.36-23.81-15.49-25.95-3.54-6.75-12.84-23.32-13.46-29.99-1.36-.26-1.06-1.09,0-2l.99-.51c.19-.4-.13-1.02,0-1.49,3.46-13.53,2.8-26.51-2-38.96-3.68-7.67-9.62-15.53-18.14-18.31-5.47-1.79-6.57,1.77-5.83-6.67,23.47,1.69,38-24.86,24.81-44.28-2.72-4.01-10.4-10.86-14.81-12.65-33.81-1.58-67.76-2.25-101.86-2h-1V48.5c62.13-.88,128.09-.88,190.73,0Z"/>
  <path class="cls-40" d="M538.12,548.26c1.91,2.36,1.86,14.1,2.42,18.07,2.7,18.83,6.05,37.61,7.85,56.56-15.19,2.07-29.87,6.69-44.91,9.52-42.04,7.91-88.5,10.42-131.3,11.51-19.42.49-39.52.75-58.33-4.17-1.04-8.37-1.94-16.84-3.29-25.17-2.17-13.39-6.51-29.26-7.7-42.24-.76-8.32,1.76-10.6,7.43-16.3.82-.83.88-1.43,2.42-1.07,3.47,8.62,12.58,36.2,19.04,41.4,5.03,4.06,12.69-.71,17.59-3.27,29.91-15.6,47.69-59.98,45.25-92.56-2.84-37.9-31.98-85.39-62.57-107.27-1.69-1.21-4.04-.37-3.33-3.12,5.57.13,14.47-8.23,19.22-7.82,2.28.2,7.52,3.06,9.66,4.39,19.57,12.23,40.02,47.15,49.87,67.99,1.32,2.8,3.24,12.07,6.54,12.29l62.4-12.03c.48-2.34.08-4.63-.35-6.94-2.82-15.18-15.02-43.49-21.8-58.1-2.12-4.58-10.03-16.79-10.71-20.26-.31-1.59,0-1.66,1.45-1.46,7.6,1.03,15.22,2.12,22.53,4.45,13.61,25.17,23.4,50.96,31.46,78.42,8.42,28.66,15.45,69.78,34.47,93.38,1.51,1.87,3.87,2.82,4.67,3.81Z"/>
  <path class="cls-108" d="M497.48,48.5v196.79c-6.49-2.38-15.2-.96-16.75,6.73-2.34,11.65,4.85,35.62,9.88,46.6,1.64,3.58,6.25,8.64,6.82,12.16,2.35,14.56-.13,40.83.04,56.9.02,1.69-.64,4.44,1.02,5.48.55.3.53.63,0,1-2.27.74-39.4-9.92-46.55-10.87-9.37-1.24-18.9-1.14-28.34-1.12-1.79-12.68-2.65-25.4-1.8-38.25,21.33-22.03,40.22-48.41,44.73-79.62,2.26-21.72-.59-42.2-9.99-61.94-10.63-18.67-32.44-35.57-52.93-41.96-1.65.51-3.75.05-4.99-1,.05-.48-.03-.79-.51-.99-.39-.19-1.02.13-1.49,0-23.8-4.85-46.11.5-66.91,11.99-2.52,1.59-5,3.32-7.47,5.01l-14.5,12.97V48.5h189.74Z"/>
  <path class="cls-39" d="M385.63,482.05c4.98,18.06,4.71,37.93-1,55.94-7.28,17.99-17.95,38.05-35.03,48.37-2.48,1.5-10.77,6.04-13.21,5.44-4.67-1.16-16.92-35.53-20.31-41.32,8.37-12.9,19.12-24.32,27.03-37.54,2.5-4.18,8.19-10.51-.3-10.78-5.65,9.52-12.02,18.92-18.67,27.76-5.58,7.42-14.53,20-20.85,26.1-.91.88-1.32,1.78-2.83,1.76-2.43-.04-17.22-7.82-20.34-9.62-20.25-11.69-38.13-29.14-50.93-48.62,24.35-30.48,43.51-73.96,76.26-96.22,2.69-1.83,14.46-9.22,16.8-9.14,4.97.17,24.92,20.28,28.96,24.92,13.73,15.74,29.68,42.59,34.44,62.95Z"/>
  <path class="cls-96" d="M335.7,223.32c12.13,3.18,24.27,7.31,36.95,8,.51.43-1.76,5.81-1.99,6.99l.46,1.73c-3.19,12.23-1.68,22.31,4.53,30.23.94.57,1.28,2.02,3.07,1.58,2.59-.64,6.74-6.51,9.58-8.4,24.19-16.16,43.29,17.27,22.22,35.21-4.03,3.43-10.11,6.72-15.38,7.6-.48.2-.56.5-.51.98-7.03-.18-16.69,5.75-4.09,5.67,10.68-3.88,11.34-3.8,18.07,5.32.8.49,1.49.7,2,1,2.08,1.08,3.82,2.35,5.21,3.83.31,10.76.57,21.47.78,32.13.2,2.17,2.68,6.75-.65,7.85-2.26.75-6.15-.16-8.83.15-20.28,2.34-40.58,6.54-59.91,12.99.54-3.79-2.1-14.83-1.6-17.36.26-1.33,9.65-2.86,7.99-8.03-1.38-4.32-11.09,3.4-13.9,4.39-1.19,1.46-4.5,2.12-6.49,2-4.72,1.23-11.36,1.64-15.98,0-2.9-.5-6.06-1.49-9.49-3-20.4-11.73-23.39-29.42-24.65-51.52.26-1.52,6.04-2.25,2.68-5.42-10.2.43-19.85-.91-28.96-4-9.68-6.55-13.26-17.65-4.03-26.5,10.1-9.68,23.18-.11,30.01-7.94,4.92-5.64,10.81-46.2,14.96-47.47,12.44,4.64,25.09,8.64,37.95,11.99Z"/>
  <path class="cls-96" d="M122,459.07c-7.6-4.99-14.73-11.09-12.73-21.28.76-3.84,2.93-2.06,4.69-4.3,3.75-4.79-6.46-6.11-8.4-8.42-2.7-3.22-1.6-9.24-.51-12.95,4.92,1.13,9.84,2.51,14.96,2,1.84-8.08-7.55-5.91-13.53-7.94-14.37-4.89-11.54-18.08,1.88-20.71,12.07,2.97,24.22,5.96,36.43,8.37,5.34,1.05,24.24,6.04,27.74,3.39,3.71-2.81-.77-7.04-3.57-8.59-.43-3.07,3.95-.99,5.38-.38,12.87,5.42,18.38,22.34,17.56,35.35-.39,6.29-3.35,13.29-3.89,19.12-.59,6.36,11.69,28.27,15.37,35.36,2.07,3.98,14.17,23.62,14.34,25.64.28,3.22-19.55,17.41-5.84,15.79l13.48-14.48c15.92,21.18,35.51,41.64,60.42,51.95.35,1.75-.91,2.46-1.98,3.5-8.54,8.26-20.49,19.68-29.97,26.46-13.79,11.62-35.14,19.69-51.93,8.99-14.94-11.55-24.21-28.08-31.96-44.95-8.05-20.81-14.71-42.17-19.97-63.93-1.06-6.79-2.52-13.46-4.38-20.02-7.95-2.48-15.81-5.13-23.58-7.95Z"/>
  <path class="cls-114" d="M547.41,217.32l.75.71c2.89,12.25,4.59,25.34,5.24,37.25,3.6.53,4.3-.61,4.22-4.3-.56-9.93-1.67-20.07-4.22-29.67-.64-3.94-.72-7.23-3-10.98,2.64-.24,5.06,1.42,6.99,2.99,5.82,4.71,10.69,17.38,11.98,23.97,4.43,19.82,2.77,41.2-2,60.94-.06.31-2.16,3.85-1.94,5.66,9.6,29.76,24.18,58.2,35.89,87.25,7.39,16.14,15.22,33.28,16.98,50.95,2.33,7.28,3.06,16.88,0,23.97-2.7,5.52-5.43,10.95-8.99,15.98-11.15,13.4-31.1,17.85-46.93,10.99,0-.68,6.71-8.75,7.99-10.99,7.51-16.24,11.55-32.85,11.98-50.95-.27-5.72-2.13-20.71-5.55-24.92-1.63-2.01-7.49-4.62-10.07-5.91-6.95-3.46-26.09-9.47-30.73-13.22-2.16-1.74-1.13-5.06-2.59-4.91-5.22-21.6-11.21-42.91-17.98-63.93-3.02-3.58-7.52-5.71-10.95-9.52-7.37-8.18-12.45-21.2-15.14-31.81-1.28-5.04-6.6-24.45-.17-26.42,6.82-2.09,11.99,4.76,14.47,10.12,2.28,4.92,4.39,21.84,10.79,17.67l1.16-3.5c-1.04-8.93-1.48-18.31-1.16-27.47-.17-1.58-.96-2.69-1-3-2.39-9.91-3.72-19.9-3.99-29.97.92.07,1.29-5.11,6.55-5.93,4.17-.65,6.53.01,9.43,2.94,5.1,12.46,7.25,26.65,6.99,39.96.18,1.02.73,1.39,1,2,3.43,3.74,5.47-.54,4.4-5.18-1.16-4.59-1.63-9.19-1.41-13.8-1.31-8.82-3.37-17.36-5.55-25.96,9.53-8.2,13.88.26,16.53,8.98Z"/>
  <path class="cls-40" d="M365.44,142.68c66.09-7.44,119.48,59.96,86.58,120.6-23.03-14.52-47.03-27.42-70.29-41.55-13.96-8.48-26.95-18.7-41.36-26.56-10.23-5.58-21.36-9.4-31.19-15.78-1-1.54,1.68-4.35,2.59-5.49,11.88-14.97,34.52-29.06,53.67-31.22Z"/>
  <path class="cls-39" d="M487.49,378.16c8.82.38,17.78,3.69,25.96,6.99,11.9,3.92,24.14,8.77,35.63,13.81,5.13,2.25,17.91,7.3,21.66,10.3,5.97,4.77,6.22,27.9,5.61,35.31-1,12.13-11.49,43.54-22.97,48.95-3.38,1.59-19.3-5.04-21.95-7.47-2.22-11.85-5.01-23.4-8.38-34.65-1-4.16-2.87-5.6-5.6-4.31-.92.89-1.07.51-.83,2.2.56,3.96,3.84,9.73,4.83,13.79,5.37,21.81,9.67,44.5,10.98,66.93-1.01,2.37-1.03-.18-1.49-.98-4.55-7.99-10.01-20.35-13.49-28.99-4.84-16.16-9.17-32.48-12.98-48.95-.35-1.33-.64-2.65-1-4-2.98-10.07-6.3-20.06-9.99-29.97-1.85-5.69-3.43-11.13-5.82-16.66-3.03-7.01-10.22-17.43-12.14-23.82-.46-1.54.07-1.6,1.42-1.44,3.72.46,7.18,2.13,10.54,2.96Z"/>
  <path class="cls-71" d="M554.39,654.86c-23.71,2.77-46.99,9.21-70.71,12.68-24.44,3.58-49.93,5.6-74.55,6.34-30.12.91-60.42-.16-90.33-3.13l-3.08-22.89c18.37,1.94,36.94,2.47,55.46,2.04,42.47-.98,88.64-3.62,130.46-11.34,16.04-2.96,31.86-7.06,47.74-10.68l5,26.97Z"/>
  <path class="cls-39" d="M428.57,368.17c2.23.1,4.95-.5,7,.49s4.16,8.19,5.98,8.5c4.3,7.49,8.5,15.78,10.98,23.97.24.45.85.72,1,1,1.76,2.59,2.76,5.26,3,7.99.94,2.4,2.19,4.84,3,6.99,4.4,10.64,8.92,21.66,10.98,32.97-.22.21-1.63.22-2,1-17.69,3.96-35.33,7.29-52.93,9.99-1.3-2.37-2.43-7.61-3.82-10.66-9.68-21.22-28.8-51.39-47.19-65.68-2.23-1.73-5.2-3.73-7.91-4.59.14-1.48,1.47-1.56,2.54-1.94,11.18-4.08,33.31-7.76,45.4-9.03,8.17-1.84,16.16-2.18,23.97-1Z"/>
  <path class="cls-75" d="M109.02,373.16v6.99c-15.06-2.38-24.8,18.24-12.35,27.86.99.76,3.25.98,3.36,1.12.53.7-1.74,3.98-1.94,5.53-.69,5.3-.23,10.4,3.39,14.51,1.06,1.2,3.29,1.81,3.46,2.06.48.67-1.63,4.77-1.82,6.44-1.02,8.56,2.35,15.27,7.9,21.4-7.72-.06-15.38.61-22.97,2-8.09,5.62-5.92,22.23-2.77,30.24,1.94,4.94,1.96,4.27,5.76,6.72,2.34,1.1,4.74,1.95,7.21,2.54l49.46.08c2.03.94,11.96,36.25,13.23,41.33-.12.32.15.86,0,1h-84.88c-.44-57.06-.44-114.01,0-170.82,10.48-.86,22.15-.67,32.95,1Z"/>
  <path class="cls-124" d="M544.41,202.34c-1.26-.95-1.23-3.32-3-4-.31-63.75-.64-127.69-1-191.8l-1.18,1.85c-2.21-1.41-3.65-1.12-4.32.86l.5,189.39-1,.7c-.34-.03-.72.07-1,0-.41-1.15-.74-1.48-1-1-3.33-.51-1.01,2.73-3,4.99l-2-1c-1.17.3-1.33-.61-.47-2.73l-.03-191.84c-1.27-.46-1-.87.5-1.23l-2-.5c-160.54-.6-333.29-1.11-495.31.5l.02,321.07-3.01.6V1.55s515.64.14,515.64.14l1.64,200.65Z"/>
  <path class="cls-71" d="M110.22,322.42l63.74.26c23.53,8.26,26.11,39.88.38,46.39l-63.63-1.1c-11.41-11.46-9.93-33.06-.49-45.55Z"/>
  <path class="cls-71" d="M561.39,694.82c1.74,18.46,3.34,38.93,2.03,57.49-.6,8.53-1.11,12.83-9.63,16.34-10.56,4.36-35.09,2.78-37.28-11.45l-.06-55.37,44.93-7.01Z"/>
  <path class="cls-71" d="M371.52,222.45l-.38,2.88c-30.06-5.31-60.26-13.52-88.33-25.52-8.61-3.68-37.87-17.67-41.45-25.46-1.66-3.61-.33-7.12,3.25-8.7,8.79-3.9,28.14,4.64,37.16,8.23,31.85,12.69,60.3,31.43,89.75,48.57Z"/>
  <path class="cls-89" d="M66.08,44.5c1.88.97,3.4,2.69,3.99,3-.93,90.53-.93,180.77,0,270.72-.45,1.72-2.67,2.98-3.99,4-1,1.56-2.17,2.16-3.5,1.79V44.73c.26-.92,1.43-.99,3.5-.23Z"/>
  <path class="cls-35" d="M146.96,495.03h-50.43c-7.72,0-9.97-26.75-4.5-29.48,2.01-1.01,24.68-.81,28.36-.38,6.33.74,14.02,4.35,20.59,5.37l5.98,24.49Z"/>
  <path class="cls-98" d="M296.76,36.51l.18-1c66.62-.21,133.23-.09,199.84.37l.7.63c-.12,1.93.44,5.65,0,6.99-67.53,1.15-135.11,1.15-202.72,0-.79-2.48-.79-4.81,0-6.99h2Z"/>
  <path class="cls-133" d="M286.77,60.49c.73,36.38.6,72.73.32,108.86l-4.31-.97c-.4-.17-.69-.85-1-1l-8.52-3.4c-.19-34.83-.01-69.66.53-104.49,1.36-7.16,11.31-4.18,12.98,1Z"/>
  <path class="cls-33" d="M103.03,322.21c-7.85,13.8-8.28,30.82-1,44.95h-22.47c-1.36,0-7.55-1.46-8.54-2.44-8.05-8.01-5.02-42.51,4.55-42.51h27.46Z"/>
  <path class="cls-13" d="M275.78,423.11c-.75,1.5-1.42,1.01-2.02-1.47l-.48-118.08c.44-.88,3.47-1.17,4.02-.26-.31,3.99-.15,7.63.48,10.92,1.17,11.08,4.23,19.73,9.99,28.97v1c-1.15,21.23-1.14,44.6,0,65.93-3.98,3.56-8.44,8.86-11.98,12.99Z"/>
  <path class="cls-71" d="M349.69,678.84c-1.43,20.94-3.2,42.78-7.03,63.42-.23,1.26-.27,3.15-1.95,1.51-.63-.62-6.6-13.88-7.49-15.99-6.85-16.22-11.02-33.5-13.49-50.93l29.96,1.99Z"/>
  <path class="cls-30" d="M434.56,29.52c.18,0,1.56,1.05,3.38,1.07,21.5.25,43.04-.34,64.53-.07-.21,0-2.99.78-3.99,1-12.45,1.76-25.25,2.27-38.4,1.52l-147.62-.03-2.72-1.5h-2c-8.97.76-17.96.76-26.96,0-4.65,0-9.33,0-13.98,0l-27.96,1.58c-60.51.14-121.03,0-181.57-.44l-1.17.86v292.19c-.32,1.46-.94-.49-1-.5-2.29-.38-2.74-1.12-.47-1.57-.29-97.54-.13-194.91.47-292.12,1.07-.37,2.57-.89,3-2,125.5-.92,250.99-.92,376.48,0Z"/>
  <path class="cls-89" d="M70.07,372.16v170.82c-.33,1.03-3.79,2.55-4.99,3l-1.7.14c-.96-59.74-1.66-121.9-.5-181.59l1.19-.36c2.21,2.48,3.91,5.41,5.99,7.99Z"/>
  <path class="cls-146" d="M527.43,6.54v195.8c1.58-.1,1.19,1.15,0,2-1.3.05-2.26-.89-3-1l2.07-3.4-.07-192.39H33.12l-1,320.67c-.88-105.32-.88-216.1,0-321.66,165.1-1.2,330.21-1.41,495.31,0Z"/>
  <path class="cls-93" d="M504.47,317.22l7.31,5.26c4.12,19.23,12.92,39.66,16.03,58.91.24,1.46.97,1.43-.37,2.77-7.86-1.77-15.61-4.17-23.27-7.21l.3-59.72Z"/>
  <path class="cls-66" d="M301.75,48.5v126.87c-2.89-.16-4.72-1.5-6.99-3-.87-40.13-.87-83.27,0-123.87,1.97-.41,4.85.28,6.99,0Z"/>
  <path class="cls-103" d="M335.7,362.17c.91-.22,1.52-.85,2-1,.65-1.14,1.42-1.2,2,0,.66,3.94,2.42,14.33.08,17.56-2.89,3.99-27.11,11.18-32.03,16.41l-.22-35.44c9.44,3.12,18.39,3.37,28.18,2.47Z"/>
  <path class="cls-136" d="M69.07,38.51l.17-1,195.81.07v3.82c-63.63.45-127.29.81-190.99,1.09-1.46-.03-3.88-3.18-4.99-4Z"/>
  <path class="cls-80" d="M271.79,202.34c.54-.62,14.71,5.39,15.36,5.89,4.71,3.62-7.03,38.97-8.06,45.8-1.21,2.61-4.84,2.23-7.3,2.25v-53.94Z"/>
  <polygon class="cls-102" points="163.94 375.16 163.94 391.14 113.95 380.55 114 374.15 163.94 375.16"/>
  <path class="cls-143" d="M536.42,199.34c-.56-.06-1-.11-1-.17-.5-63.18-.46-128.47-.15-191.53,1.24-.43,2.49-.61,3.75-.54.68,64.22.48,128.3-.61,192.24-.66.03-1.34.02-2,0Z"/>
  <path class="cls-12" d="M263.8,44.5v3c-61.12.88-126.25.88-187.74,0,.09-.75,1.08-1.96,1-3,62.23-.59,124.47-.59,186.74,0Z"/>
  <path class="cls-12" d="M498.48,31.52c-1.8.4-5.51,1.34-5.99,3-60.18,1.72-120.56,1.53-180.75,0,.35-1.66-.75-2.23-2-3h188.74Z"/>
  <path class="cls-12" d="M266.8,31.52c-1.44.88-4.06,2.92-5.58,3.03-2.03.15-3.02-1.59-3.92-1.66-4.82-.39-17.24,2.66-24,1.68-2.29-.33-3.63-1.94-5.01-2.08-1.53-.16-4,1.79-6.84,2.11-9.99,1.11-22.15-.9-32.03-.87-14.38.05-35.15,2.82-48.98.85-2.41-.34-3.82-2.1-5.92-2.14s-4.81,1.82-7.95,2.14c-6.61.67-25.77.9-32.06,0-2.29-.33-3.64-1.95-5.02-2.09-2.21-.23-3.41,2.03-4.91,2.03-2.73,0-7.41-4.5-12.98.12-4.73-2.31-10.25-1.98-15.48-1.11l.95-1.51c69.79-.92,139.88-.46,209.76-.49Z"/>
  <path class="cls-42" d="M31.13,362.17c.07.02.69-1.36,1.51-.11l.48,219.88,145.8-1c.28.5,2.25.67,2,3H32.12l.07-217.39-1.07-3.38v-1Z"/>
  <path class="cls-132" d="M540.42,6.54c.92,40.62.88,83.33,0,123.87.1,23.11-.24,46.09-1,68.93-.33.03-.67-.01-1,0l-.5-191.81-2.5,1.47,1.01,190.33c-.66-.02-1.34.06-2,0V6.54c1.69.3,4.63-.44,5.99,0Z"/>
  <path class="cls-86" d="M311.73,34.51c60.23-.25,120.52.19,180.75,0l6,1.02c.14.7-1,.89-1.01.98h-200.72c-1.78-2.72-.97-1.88,1.48-2,4.46-.22,9.03.02,13.5,0Z"/>
  <path class="cls-38" d="M267.8,583.94c-.48-1.01.08-2.07,1.24-2.3,3.95-2.03,20.2-20.03,22.35-20.44,5.78-1.11,4.02,3.76,4.5,7.13.38,2.66,3.21,14.54,2.87,15.61-10,1.22-20.87,1.01-30.96,0Z"/>
  <path class="cls-94" d="M266.8,37.51c-.33,1.74-.67,3.41-1,4.99-62.11.88-128.26.88-190.73,0h-1c.18,0,1.51-1.08,3.38-1.07,62.26.51,124.53-.25,186.78.08l.58-4.01-195.73.99c-.27-.2-3.83-.5-2.49-2l200.22,1Z"/>
  <path class="cls-128" d="M160.94,548.98c3.06.2,4.97.9,3,4h-96.87c.18-2.15,5.97-3.12,5.99-4,29.36-1,58.65-1,87.88,0Z"/>
  <path class="cls-12" d="M292.76,50.5c.87,38.79.87,80.72,0,119.87h-3c-.87-40.77-.87-84.74,0-125.87,1.81,1.69.17,5.1,3,5.99Z"/>
  <path class="cls-69" d="M62.08,331.21c-.31,4.52-1.96,10.04-2.05,14.45-.08,4.12,2.97,11.66-1.44,12.51-19.71,3.81-16.91-32.4,3.49-26.96Z"/>
  <path class="cls-141" d="M294.76,352.18c2.57,2.51,6.59,3.71,7.05,7.43,1.43,11.59-1.19,26.09-.06,38.03l-1.01,1.99-5.99,4.5v-51.95Z"/>
  <path class="cls-88" d="M55.09,31.52v293.69c-.89-.17-2.04.11-3,0,0-.07-.95-.48-1.02-.98l3.08-.57-.07-292.64c.25-1.42.95.51,1,.5Z"/>
  <path class="cls-79" d="M66.08,44.5l-3,.5v278.7c1.13,1.63,1.21-1.32,2-2.04.47-.43.95.58,1,.55-.87,2.65-.98,3.42-3.99,3-.88-92.51-.88-189.95,0-282.7.97.14,2.9,1.43,3.99,2Z"/>
  <path class="cls-120" d="M286.77,36.51c.82,7.55.79,16.33,0,23.97-5.96-1.89-6.79-5.77-12.98-1-.27-5.56-.61-11.22-1-16.98-.86-1.01-.75-4.37,0-5.99,4.57.08,9.5-.34,13.98,0Z"/>
  <path class="cls-12" d="M270.79,50.5c.87,36.83.87,76.7,0,113.88-.94-.3-2.08-1.81-3-2-.87-36.49-.87-76.03,0-112.88.91.58,1.94.85,3,1Z"/>
  <path class="cls-27" d="M61.08,325.21V42.51c.88,92.53.88,189.82,0,282.7Z"/>
  <path class="cls-147" d="M62.08,325.21c-.33-.05-.67.03-1,0V42.51c.33.04.67-.05,1,0v282.7Z"/>
  <path class="cls-17" d="M71.07,47.5c.19,0,.22-.84.5-1l.51,271.21c-1.59,1.72-.99-2.96-1-3.49-.93-88.9-.93-177.81,0-266.72Z"/>
  <path class="cls-70" d="M70.07,314.22c-.19,1.21.28,2.94,0,4-1.66-1.04-.99-3.79-1.02-5.48-1.08-86.89.84-173.85.02-260.74l1-4.5c.78,88.71.78,177.62,0,266.72Z"/>
  <path class="cls-5" d="M71.07,314.22h-1V47.5c.16.08.67.01,1,0,1.24,88.85-1.65,177.89,0,266.72Z"/>
  <path class="cls-14" d="M56.09,556.97h110.34c1.08.14-.62,1.82-.5,2l-.18.98-108.67-.98c-.15-.64-.96-1.51-1-2Z"/>
  <path class="cls-101" d="M497.48,43.5c-.46,1.43-1.33.97-2.44,1.04-64.4,4.24-133.42-3.26-198.28-.04-.28.87-.62.86-1,0-.01-.16-.9-.59-1-1h202.72Z"/>
  <path class="cls-90" d="M55.09,364.17l.52,1.23c.25,64,.08,127.86-.52,191.57l-.94-191.22c.03-1.19-7.55-.42-5.05-2.57,1.98.84,4.72.53,5.99,1Z"/>
  <path class="cls-107" d="M529.43,203.34c-.14.15-1.82.99-2,1,.11-.63-.16-1.48,0-2,.25-.81,1.56-1.91,1.07-3.38l-.07-188.93.99-3.48v196.79Z"/>
  <rect class="cls-123" x="498.48" y="49.5" width="1" height="195.8"/>
  <path class="cls-77" d="M533.43,199.34c-.48-.12-.84-.54-1-1V10.03s.99-3.48.99-3.48v192.79Z"/>
  <path class="cls-29" d="M541.42,198.34c-.17.44-.54.9-1,1-.43-22.73-.43-45.7,0-68.93V6.54c1.43.47.97,1.33,1.04,2.44l-.04,189.36Z"/>
  <path class="cls-56" d="M56.09,556.97h-1v-192.8c1.41.52.96,1.27,1.05,2.44,4.22,61.64-4.55,128.86-.05,190.36Z"/>
  <path class="cls-51" d="M265.8,43.5c.28-.87.62-.86,1,0-.45,1.52-1.69.92-3,1-60.82,3.81-125.52-2.85-186.74,0l-2-1c62.11-.88,128.26-.88,190.73,0Z"/>
  <path class="cls-32" d="M263.8,47.5c1.54-.61,2.35.75,3,1H76.06c.03-.33-.04-.67,0-1h187.74Z"/>
  <path class="cls-136" d="M265.8,42.51c.72.29.71.62,0,1H75.06v-1h190.73Z"/>
  <path class="cls-79" d="M64.08,364.17c-1.14,1.66-.97,3.54-1.04,5.44-2,57.23,1.64,115.61-.03,172.96l2.07,3.4c-.72.27-2.47.94-3,1-.88-60.16-.88-124.28,0-184.81,1.34.26,1.33,1.25,2,2Z"/>
  <path class="cls-11" d="M62.08,546.98c-.33.04-.67-.03-1,0v-184.81c.33.05.68-.06,1,0v184.81Z"/>
  <path class="cls-8" d="M70.07,514.01c-.04,5.68,1.15,25.35,0,28.97v-170.82c.76,47.26.91,94.59,0,141.85Z"/>
  <polygon class="cls-130" points="76.06 542.98 75.06 372.16 76.06 372.16 76.06 542.98"/>
  <path class="cls-142" d="M71.07,372.16c1.67,1.23.94,2.82,1.02,4.47l-.02,163.85c-1.41,1.62-.98-1.11-1-1.98-.24-8.14.02-16.36,0-24.49-.74-47.27-.86-94.58,0-141.85Z"/>
  <path class="cls-20" d="M272.79,302.23c1.63-.16,3.36.1,5,0,.28,3.87-.41,8.2,0,11.99l-1,2.49v-13.49s-3.01.6-3.01.6v117.8s2.01,1.48,2.01,1.48c-.74.86-1.26,2.23-2,3-.56-.05-1-.11-1-.17-.5-40.8-.57-83.17,0-123.7Z"/>
  <path class="cls-41" d="M71.07,514.01h-1c.3-47.26-.22-94.59,0-141.85.33.08.82-.13,1,0,.09,47.27-.12,94.59,0,141.85Z"/>
  <path class="cls-74" d="M287.77,170.37c-.86-.2-3.9-1.52-4.99-2h3.99c.02-35.95,0-71.94,0-107.89v-23.97c.33.02.68-.05,1,0,.87,43.4.87,90.1,0,133.86Z"/>
  <path class="cls-54" d="M266.8,301.24c1.44.47.97,1.32,1.04,2.44l-.04,131.91-1-.5v-133.86Z"/>
  <path class="cls-65" d="M289.77,37.51c1.51,1.91,2.53,4.61,0,5.99v126.87c-.32,0-.68.05-1,0-.87-43.4-.87-90.1,0-133.86.52.2.75.85,1,1Z"/>
  <path class="cls-121" d="M288.77,170.37c-.33-.05-.7.07-1,0V36.51c.35.05.75-.09,1,0v133.86Z"/>
  <path class="cls-113" d="M273.79,59.49c.06,34.75,0,69.53-.06,104.28,3.17.75,5.39,2.33,8.05,3.61-3.41.23-6.21-1.99-8.99-3-.74-40.62-.74-81.25,0-121.87,1.85,4.82.99,11.57,1,16.98Z"/>
  <path class="cls-73" d="M272.79,42.51v121.87c-.29-.1-.69.1-1,0-.87-41.43-.87-86.08,0-127.87.33,0,.67,0,1,0v5.99Z"/>
  <path class="cls-4" d="M271.79,164.38c-.3-.09-.7.1-1,0V43.5c-2.24-1.11-2.34-6.3,0-6.99.33,0,.67,0,1,0v127.87Z"/>
  <path class="cls-72" d="M273.79,426.11c-.36.37-.09,1.51-2,1v-124.87c.33-.03.67.03,1,0l1,123.87Z"/>
  <path class="cls-12" d="M294.76,172.37c-.24-.16-.84.17-1,0-.87-40.4-.87-82.5,0-122.87.3-.3.61-.92,1-1v123.87Z"/>
  <path class="cls-76" d="M293.76,172.37c-.84-.88-.82-.61-1-2V50.5c.3-.37.67-.67,1-1v122.87Z"/>
  <path class="cls-52" d="M160.94,541.98l-12.94-40.5c-2.91-1.93-42.68.48-50.49-.44-3.42-.4-4-1.42-6.47-3.02,2.03-.69,5.57,2,6.49,2h50.93c5.64,12.67,7.86,27,13.1,40,.63,1.09-.47,1.58-.62,1.95Z"/>
  <path class="cls-138" d="M539.42,532.99l-6.01-36.46.51-1.5c.86,1.01,5.5,2.53,5.5,3.49v34.46Z"/>
  <path class="cls-59" d="M267.8,49.5v112.88c-.31-.06-.67.03-1,0V48.5c.32.12.64.77,1,1Z"/>
  <path class="cls-83" d="M165.94,558.97c.1.14.48-.73,2,2l-110.85-2h108.85Z"/>
  <path class="cls-124" d="M548.41,216.32c-.26-1.6-2.11-4.98.99-5.99l.03,7.97,2.98.02-1,6.98,1.99-2.99c1.82,4.29,5.7,29.57,3.76,32.06-1.09,1.39-2.17,1.6-2.76-.1l-1.46-2.39c-.73-11.8-2.24-23.66-4.53-35.57Z"/>
  <path class="cls-95" d="M178.92,318.22l-101.86-2,93.41-.04c2.65.23,6.02,1.06,8.45,2.04Z"/>
  <path class="cls-45" d="M532.43,530c-3.59-22.2-5.69-45.06-10.98-66.93l1.13-.65c3.19,20.52,9.2,42.53,10.87,63.14.12,1.51.46,3.48-1.02,4.44Z"/>
  <path class="cls-104" d="M396.62,138.41l-24.51-1.04c-14.29.86-26.31,5.48-38.7,12.24-.92.5-3.05,3.01-3.7.79,18.77-11.85,45.12-18.46,66.91-11.99Z"/>
  <path class="cls-10" d="M160.94,548.98c-28.57-1.87-59.1,1.4-87.88,0,0-.06-.64.21-.99-.5,27.33-.68,55.68-.81,83.39-.52,1.69.02,4.44-.64,5.48,1.02Z"/>
  <path class="cls-19" d="M169.93,550.98c-9.09-19.81-15.54-42.45-19.97-63.93,3.06,10.3,6.26,21.41,9.49,31.96s7.48,21.17,10.48,31.97Z"/>
  <path class="cls-23" d="M533.43,382.15c-.16.02-.54.86-.98,1.01-4.16-22.02-11.74-43.2-17-64.95,3.57,4.23,11.61,36.79,13.7,44.74,1.66,6.3,3.48,12.71,4.28,19.2Z"/>
  <path class="cls-62" d="M201.89,595.93c18.16,9.15,36.61,1.96,51.93-8.99,2.18.66-1.4,2.28-1.89,2.61-14.7,9.82-34.2,18.63-50.04,6.38Z"/>
  <path class="cls-58" d="M466.52,244.3c-2.53-2.55-.17-6.62-.01-9.5.95-17.28-1.97-32.94-9.49-48.43-.49-1.01-2.49-3.42-.49-4.01,10.69,18.76,13.05,40.71,9.99,61.94Z"/>
  <polygon class="cls-106" points="504.47 225.32 507.3 238.97 509.47 257.77 504.47 250.79 504.47 225.32"/>
  <path class="cls-18" d="M384.63,537.99c4.45-18.59,5.38-37.21,1-55.94,1.03-2.57,1.4,1.25,1.5,1.98,2.78,19.4,5.1,35.19-2.5,53.96Z"/>
  <path class="cls-53" d="M335.7,362.17c-9.36,2.22-18.96,1.22-27.96-1.99v34.96s-1-35.96-1-35.96c5.24.33,10.23,2.69,15.48,2.98,4.74.26,9.36-1.58,13.47.02Z"/>
  <path class="cls-78" d="M468.52,451.08l-50.58,10.94h-1.77c-.54-.19-.42-.66-.58-.95l52.93-9.99Z"/>
  <path class="cls-25" d="M575.37,497.03c-1.56-.12-9.93-1.72-11.24-2.24-.84-.33-1.72-.69-1.74-1.76,17.34,4.84,34.17,2.15,46.93-10.99-7.27,10.3-21.16,15.98-33.95,14.98Z"/>
  <path class="cls-124" d="M540.42,199.34c-.3.06-.66-.03-1,0l1-68.93v68.93Z"/>
  <path class="cls-50" d="M570.38,482.05c-2.01-.61,0-2.99.49-4.01,3.22-6.83,6.47-14.52,8.04-21.93,1.74-8.25,1.49-16.83,3.46-25.01.8,16.89-3.55,36.23-11.98,50.95Z"/>
  <path class="cls-81" d="M288.77,344.19c.98,21.98.98,43.96,0,65.93-.16.17-.81-.16-1,0-1.18-21.62-.97-44.23,0-65.93v-1c.22.36.83.65,1,1Z"/>
  <path class="cls-116" d="M288.77,410.12v-65.93c.7,1.49.88,1.3,1.06,3.39,1.66,19.16-1.42,40.71,0,60.14.23,1.34-.33,1.64-1.06,2.39Z"/>
  <path class="cls-64" d="M498.48,374.16v-63.93c1.75-.23.95,2.27,1,3.48.79,19.27-.62,38.7.04,57.99-.13,1.12.48,1.97-1.04,2.46Z"/>
  <path class="cls-112" d="M504.47,317.22l.04,59.9c7.89,1.08,15.39,4.52,22.92,7.03-1.37,1.38-1.25.65-2.74.32-2.86-.63-17.67-5.32-19.57-6.48-.65-.4-1.35-.59-1.53-1.47l.86-59.3Z"/>
  <path class="cls-135" d="M149.96,487.04c-.97-3.26-4.29-18.77-4.9-19.57-1.78-2.38-17.16-4.05-22-6.97-.68-.41-.85-1.29-1.07-1.43,7.79,3.14,16.6,3.72,24.05,7.41,2.05,2.68,3.08,16.55,3.91,20.57Z"/>
  <path class="cls-127" d="M394.62,307.23c.02.15.88.53,1.01.98l-10.01,1.02v2.99c5.76.81,10.84-1.96,16.33-2.9l6.65,8.89c-2.62-1.61-6.92-7.67-7.45-7.76-2.38-.36-15.69,7.39-17.38,1.11-1.2-4.43,8.09-4.02,10.85-4.34Z"/>
  <path class="cls-34" d="M266.8,199.34c.05.02.75-1.93,1-.5l-.51,57.41c-.29-.16-.35-.98-.49-.98v-55.94Z"/>
  <path class="cls-25" d="M548.41,216.32c1.41,8.82,3.83,17.56,4.98,26.49.36,2.84-.48,6.2.02,8.82.2,1.06,3.28-.01,1,2.65,1.39,1.27.76,1.79-1,1-1.39-1.41-1.65-13.04-2.14-16.34-.95-6.49-2.01-15.54-3.85-21.62l1-1Z"/>
  <path class="cls-44" d="M553.4,255.28c.38-.21.74-.93,1-1,.62-.18,1.76.57,2.04-.62,1.26-5.25-2.01-24.8-3.04-31.35-.05-.32.05-.67,0-1,1.44,1.2,1.57,2.93,1.87,4.62,1.05,6.01,3.66,21.59,3.21,26.85-.27,3.19-2.43,5.19-5.08,2.49Z"/>
  <path class="cls-134" d="M109.02,373.16l-32.95-1h-1c1.04-1.65,3.79-1,5.48-1.02,9.22-.1,19.86-1.12,28.47,2.02Z"/>
  <path class="cls-63" d="M532.43,251.29c-1.13-6.22-1.16-13.53-2.31-20.16s-2.68-13.32-4.68-19.79c3.8,3.83,4.68,12.34,5.68,17.8,1.24,6.81,3.64,15.58,1.31,22.16Z"/>
  <path class="cls-137" d="M194.9,439.09c-1.88-.94-.63-3.38-.36-4.84,2.36-12.85,2.98-21.45-1.63-34.12,6.49,13.52,6.24,24.6,2,38.96Z"/>
  <path class="cls-57" d="M297.75,211.33l37.95,11.99c-12.73-3.33-26.1-6.08-37.95-11.99Z"/>
  <path class="cls-145" d="M339.7,355.18c2.52.98-1.15,1.52-1.8,1.69-12.11,3.19-19.28,3.57-30.16-2.69,2.67-.69,7.97,3,9.49,3h15.98c.34,0,5.48-1.64,6.49-2Z"/>
  <path class="cls-2" d="M517.45,500.03c-6.21-15.42-8.76-32.68-12.98-48.95l12.98,48.95Z"/>
  <path class="cls-36" d="M416.59,355.18c-.29-3.12-.9-6.55-1.04-9.45-.23-4.75,1.1-20.42-.88-23.09-.88-1.18-3.48-1.57-4.07-3.42.92.55,5.99,1.69,5.99,3.5v21.98c0,2.23,2.91,7.97,0,10.49Z"/>
  <path class="cls-111" d="M266.8,162.38c-.12-.01-.76,1.12-2.18.85-9.64-1.86-19.43-6.93-27.77,2.15,5.49-10.62,20.55-6.05,29.96-3Z"/>
  <path class="cls-48" d="M531.43,486.04c-2.24-2.06-6.31-29.89-9.91-36.53-1.15-2.11-1.31-2.78-4.07-2.43,1.89-1.83,3.48-1.53,4.82.68s4.04,11.95,4.88,15.1c1.97,7.36,3.43,15.6,4.29,23.18Z"/>
  <path class="cls-126" d="M503.47,447.08c-1.15,2.59-1.22-1.18-1.45-2.03-2.57-9.22-5.61-18.97-8.53-27.94,4.92,9.35,7.31,19.81,9.99,29.97Z"/>
  <path class="cls-115" d="M509.46,214.33c1.11,10.04,2.79,19.92,3.99,29.97l-.96.48c-.62-10.6-4.49-20.81-4.01-31.46.48.11.84,1,.98,1.01Z"/>
  <path class="cls-115" d="M514.45,278.26c1.33-10.27-2.44-21.12,0-30.97.81,7.51.81,14.92,1,22.46.09,3.48,2.94,5.94-1,8.5Z"/>
  <path class="cls-37" d="M375.65,270.27c-.81-.49-1.58.06-2.88-1.58-4.63-5.85-3.54-23.15-2.12-30.39,2.83,1.89,0,6.15,0,7.49v14.98c0,1.69,3.82,7.65,4.99,9.49Z"/>
  <path class="cls-49" d="M404.61,369.17l-3.99-.99c9.49.07,18.98-1.45,28.42-2.05,1.08-.07,4.71-.69,4.53,1.03l-4.99,1.01c-7.47-.35-16.51.21-23.97,1Z"/>
  <path class="cls-47" d="M487.49,378.16c.98-1.85,3.5-.89,5.03-.55,7.27,1.61,14.25,4.91,21.57,6.42l-.64,1.13c-8.48-2.79-17.29-4.87-25.96-6.99Z"/>
  <path class="cls-12" d="M307.74,31.52c-.87,2.63-2.15,1.66-3.97,1.57-4.16-.21-13.71-1.16-17.44-.59-2.9.45-3.99,4.79-5.56-.98,8.97,0,17.99,0,26.96,0Z"/>
  <path class="cls-63" d="M536.42,234.31c.69,4.63,2.77,14.39,2,18.48-.37,1.93-.65,2.09-2.5,2.52-3.46.79-2.09-1.11-2.49-2.02,1.32.38,3.31,1.64,3.91-.62,1.18-4.45-4.02-13.7-.91-18.36Z"/>
  <path class="cls-97" d="M285.77,297.24c-10.27-.44-20.05,2.03-28.96-4,4.01.26,7.62,2.42,11.59,2.89s15.15-.99,17.37,1.11Z"/>
  <path class="cls-46" d="M298.75,583.94c-.49,1.52-1.34.91-2.46,1.04-6.33.72-18.46.43-25.04,0-1.36-.09-2.7.57-3.46-1.03h30.96Z"/>
  <path class="cls-24" d="M452.54,401.13c-4.04-7.64-7.29-16.13-10.98-23.97.08.01.48-.84.89-.97,2.8,7.14,6.7,13.74,9.76,20.77.51,1.18,2.63,3.22.33,4.17Z"/>
  <path class="cls-28" d="M111.01,459.07c-.02,1.48-1.41.92-2.48,1.01-4.53.39-9.5-.43-14.03-.05-2.38.2-4.97,2.8-6.46,1.03,5.71-3.97,16.19-1.18,22.97-2Z"/>
  <path class="cls-6" d="M470.51,450.08c-3.68-10.93-6.94-22.18-10.98-32.97l3.17,5.32c1.81,8.19,6.58,16.6,8.39,24.61.41,1.81.89,1.64-.58,3.04Z"/>
  <path class="cls-12" d="M270.79,36.51v6.99c-3.81.09-3.51-4.27-2.53-7.03,1.39-2.04,2.34.03,2.53.03Z"/>
  <path class="cls-124" d="M540.42,203.33c-3.56-.77-5.81,1.43-8.99,2,2.75-2.87,6.06-7.85,8.99-2Z"/>
  <path class="cls-12" d="M289.77,37.51c3.21,1.93,4.94,5.02,0,5.99v-5.99Z"/>
  <path class="cls-12" d="M296.76,44.5l3.49,3h-5.49c-.27-.21,1.07-2.07,1-3h1Z"/>
  <path class="cls-124" d="M547.4,211.33c-1.86-.73-3.08-3.21-2.98-4.99,2.09.81,3.34,2.75,2.98,4.99Z"/>
  <path class="cls-104" d="M403.61,140.4c-1.19,2.08-4.13-.25-6-.02.15-.44.99-.81,1.01-.98,1.71.1,3.37.49,4.99,1Z"/>
  <path class="cls-12" d="M294.76,43.5c-.44-1.82-2.61-4.91,0-6.99v6.99Z"/>
  <path class="cls-12" d="M266.8,43.5h-1v-1c.06-1.6-.62-4.14,1-4.99-.29,1.73.43,4.54,0,5.99Z"/>
  <path class="cls-137" d="M193.9,441.09c.04.66-.06,1.34,0,2l-1.01,1.99c-2.27.12-.06-3.44.05-4.99l.96,1Z"/>
  <path class="cls-53" d="M337.7,361.17l-1-.99,3.48-1.02c1.33.18-.55,1.63-.49,2.01-.63.11-1.48-.16-2,0Z"/>
  <path class="cls-109" d="M19.14,341.18h-2.99s0-1.98,0-1.98c1.38-.31,2.65.54,2.99,1.98Z"/>
  <path class="cls-24" d="M456.53,410.12c-1.03-2.64-2.32-5.22-3-7.99.77,1.43,5.44,6.07,3,7.99Z"/>
  <path class="cls-124" d="M554.39,206.35c.14.14-.05.65,0,.98-1.78.27-3.5-.06-3.99-1.98.78-.11,3.76.77,3.99,1Z"/>
  <path class="cls-110" d="M389.83,705.03l82.25-3.33c1.56,1.31,1.32,2.79,1.48,4.55,1.39,14.93-.31,47.02-6.55,60.49-13.85,29.9-75.62,32.13-79.38-5.5-.67-6.72.96-12.85,1.03-18.93s-1.05-34.15,1.17-37.28Z"/>
  <path class="cls-100" d="M58.09,29.52c.02-.05-1.71-.99-.5-1h443.38c1.62,1.41-1.11.98-1.98,1-21.44.64-42.99-.48-64.43,0-125.45-1.35-251.02,1.01-376.48,0Z"/>
  <path class="cls-124" d="M32.12,328.21c-.19.15-.7-.13-1,0V6.54c.28-.87.62-.86,1,0v321.66Z"/>
  <path class="cls-67" d="M569.38,237.3c1.39-2.23,1.16,1.13,1.31,2.17,2.44,16.95,2.38,33.06-.61,49.98l-2.71,8.78c3.49-19.29,5.8-41.6,2-60.94Z"/>
  <path class="cls-55" d="M619.31,441.09c-.01.84-.08,1.24-1,1-2.31-16.42-10.73-35.46-16.98-50.95l4.16,7.32c5.82,14.09,11.11,27.59,13.81,42.62Z"/>
  <path class="cls-131" d="M619.31,441.09c1.72,9.6,3.02,16.04-.02,25.99l-.98-1.01c1.67-8.11,1.12-15.99,0-23.97l1-1Z"/>
  <path class="cls-15" d="M30.13,6.54l.95-1.51,495.77-.51.6,2.02c-165.09,0-330.22,0-495.31,0h-2Z"/>
  <path class="cls-84" d="M298.86,324.12c-.57-.82-.2-3.73.83-4.46,2.14-1.51,5.38.45,7.43.27,7.71-.68,11.52-13.82,14.26-14.56,4.21-1.15,3.56,3.79,2.57,6.6-2.2,6.27-10.98,14.05-17.81,14.17-1.18.02-7-1.62-7.28-2.02Z"/>
  <path class="cls-122" d="M399.37,270.46c3.33-.28,10.52,3.87,7.77,7.84-2.5,3.61-4.48-3.34-9.24-1.29-5.75,2.48-6.95,11.32-9.23,12.79-1.92,1.24-4.79-.43-4.6-2.62.51-5.85,9.14-16.21,15.31-16.73Z"/>
  <path class="cls-16" d="M311.42,253.39c7.6-1.97,6.71,19.62-1.13,18.93-6.59-.59-3.37-17.76,1.13-18.93Z"/>
  <path class="cls-9" d="M305.84,229.4c1.55-2.32,10.04-.61,12.58.71,2.03,1.05,7.93,6.26,7.23,8.56-1.9,6.22-7.41-2.06-9.66-3.14-2.76-1.33-13.83-.63-10.16-6.13Z"/>
  <path class="cls-43" d="M287.77,410.12c-1.7-.39-.94-3.11-1-4.5-.72-18.16-.24-37.69-.02-55.96.02-1.69-.64-4.44,1.02-5.48v65.93Z"/>
  <rect class="cls-125" x="268.79" y="105.44" width="1" height="52.94"/>
  <path class="cls-71" d="M394.61,709.8l72.89-2.99c-.72,21.42,3.73,53.43-14.96,68.44-16.59,13.33-56.1,12.32-58.94-13.99-1.75-16.17,2.82-34.9,1-51.46Z"/>
</svg>